<?xml version="1.0" encoding="UTF-8"?>
<svg version="1.1" xmlns="http://www.w3.org/2000/svg" width="655" height="655">
<path d="M0 0 C10.20504722 8.34252909 15.02399085 20.15032634 17.15625 32.90234375 C21.92349722 83.8453693 1.69211617 143.2902216 -10.87823486 192.10021973 C-11.43136886 194.25048275 -11.97950462 196.4019696 -12.52685547 198.55371094 C-19.3528891 225.27214929 -27.3631196 254.58124495 -52.1953125 270.1796875 C-70.27029789 279.9300613 -92.25938264 280.26488134 -111.92578125 275.453125 C-128.0338499 270.43083744 -138.70844756 261.14418099 -146.52929688 246.23876953 C-150.94647415 237.2554067 -154.4567236 227.97812283 -157.36791992 218.40551758 C-158.8591388 213.59973844 -160.6074356 209.48625611 -163.4453125 205.3046875 C-167.07678735 204.2481766 -167.07678735 204.2481766 -170.4453125 204.3046875 C-175.31141715 211.21058025 -177.68506551 218.3657648 -180.2578125 226.3671875 C-186.0871927 243.9276237 -192.59948973 261.65952326 -209.78515625 271.0625 C-230.60901539 280.7864166 -256.49784216 281.31840147 -278.1875 274.05078125 C-298.06492478 266.20667921 -309.06709475 250.4797705 -317.5703125 231.6796875 C-324.49189103 214.61884416 -328.40540517 196.61534802 -332.3203125 178.6796875 C-332.57854797 177.50648956 -332.83678345 176.33329163 -333.10284424 175.12454224 C-353.54730814 82.17066252 -353.54730814 82.17066252 -353.6953125 49.0546875 C-353.7159375 47.91644531 -353.7365625 46.77820313 -353.7578125 45.60546875 C-353.83007934 29.68869805 -349.97977479 16.19130046 -338.875 4.55859375 C-326.62684829 -6.80343766 -307.87865245 -10.59350419 -291.62890625 -10.7265625 C-275.66570677 -10.07166201 -261.41169402 -4.96198037 -250.3515625 6.9140625 C-229.6127327 32.92259495 -230.95894283 73.61662046 -227.46313477 105.14624023 C-227.27403534 106.8313974 -227.27403534 106.8313974 -227.08111572 108.55059814 C-226.8408589 110.69281142 -226.60412422 112.83542328 -226.37127686 114.97845459 C-226.26398254 115.93004456 -226.15668823 116.88163452 -226.04614258 117.86206055 C-225.95383865 118.69916061 -225.86153473 119.53626068 -225.76643372 120.39872742 C-225.63393798 122.30932866 -225.63393798 122.30932866 -224.4453125 123.3046875 C-224.23962646 122.49539795 -224.03394043 121.6861084 -223.82202148 120.85229492 C-212.36951906 76.08688551 -212.36951906 76.08688551 -202.4453125 63.3046875 C-201.94902344 62.655 -201.45273438 62.0053125 -200.94140625 61.3359375 C-194.31854141 53.76694912 -183.14137297 48.75710727 -173.2890625 47.453125 C-158.83459386 46.69863351 -145.87428892 49.90363504 -134.8828125 59.5546875 C-133.67625 60.9159375 -133.67625 60.9159375 -132.4453125 62.3046875 C-131.90132812 62.90667969 -131.35734375 63.50867188 -130.796875 64.12890625 C-117.04742201 80.37007234 -113.29301462 105.14167867 -108.4453125 125.3046875 C-107.90157213 121.13828911 -107.36081666 116.97150687 -106.8203125 112.8046875 C-106.69076172 111.81077499 -106.69076172 111.81077499 -106.55859375 110.79678345 C-105.45344499 102.31334021 -104.38082733 93.82682986 -103.36148071 85.33261108 C-102.85383572 81.10404371 -102.33981336 76.87625781 -101.82598877 72.6484375 C-101.57533311 70.57020995 -101.32781461 68.49160124 -101.0836792 66.41259766 C-95.98704705 23.05055279 -95.98704705 23.05055279 -83.4453125 6.3046875 C-82.8678125 5.4384375 -82.2903125 4.5721875 -81.6953125 3.6796875 C-61.03074324 -18.13291338 -23.23740011 -16.1102742 0 0 Z " fill="#0C412B" transform="translate(415.4453125,39.6953125)"/>
<path d="M0 0 C13.77245943 13.53408994 14.95665397 32.64365376 15.31640625 50.94042969 C15.55951094 80.88571866 12.59576267 110.92874757 9.30175781 140.66137695 C9.21719833 141.43465836 9.13263885 142.20793976 9.04551697 143.00465393 C8.88924902 144.42587484 8.72927441 145.84669637 8.56446838 147.26695251 C7.25929998 156.47974327 7.25929998 156.47974327 10.03125 164.99609375 C19.65086118 165.59257316 28.86972063 163.93198115 38.32720947 162.42987061 C93.50166393 153.77884919 93.50166393 153.77884919 113.63671875 168.02734375 C125.14716035 177.49106735 131.18564171 190.42579175 133.71875 204.93359375 C133.84510587 206.28587044 133.94794436 207.64048384 134.03125 208.99609375 C134.11052734 210.17365234 134.11052734 210.17365234 134.19140625 211.375 C134.75326486 227.76661429 130.0217553 243.67363049 119.71875 256.55859375 C103.39896378 273.32145109 78.86550221 275.74539324 56.90625 278.18359375 C56.1443335 278.26835968 55.38241699 278.35312561 54.59741211 278.44046021 C36.4444576 280.43249476 18.43989868 281.205918 0.18115234 281.23632812 C-3.30265688 281.2459799 -6.78586085 281.27708069 -10.26953125 281.30859375 C-38.07013272 281.43885962 -73.42348017 281.29379317 -94.98828125 261.10546875 C-126.37457849 228.69896682 -117.50615637 160.92923713 -116.91455078 119.17041016 C-115.24213882 24.67303068 -115.24213882 24.67303068 -94.765625 2.61328125 C-71.80717487 -18.04932387 -24.08317919 -20.28746073 0 0 Z " fill="#67AC5E" transform="translate(191.96875,348.00390625)"/>
<path d="M0 0 C9.31970461 8.05659446 12.6924981 19.11085482 14 31 C14.11085938 31.92554688 14.22171875 32.85109375 14.3359375 33.8046875 C16.70332465 57.92644309 14.14136644 82.20215258 12.21862793 106.26062012 C11.63917192 113.52112956 11.07135234 120.78250945 10.51309204 128.04467773 C10.3188049 130.54389666 10.11717044 133.04244068 9.91479492 135.54101562 C9.16768739 145.0050677 8.50035076 154.50411957 9 164 C10.66435847 165.66435847 12.57571555 165.20931203 14.87109375 165.24609375 C23.72980398 165.17138647 32.35293513 163.54145095 41.0625 162.0625 C92.43448857 153.46664696 92.43448857 153.46664696 113.5 167.0625 C114.325 167.701875 115.15 168.34125 116 169 C116.804375 169.53625 117.60875 170.0725 118.4375 170.625 C129.15106602 180.55464655 134.61255037 195.0236938 135.21875 209.390625 C135.72852333 228.48500263 131.42936879 244.78216448 118 259 C115.4863102 261.30590495 112.89633995 263.20264512 110 265 C109.32066406 265.42796875 108.64132812 265.8559375 107.94140625 266.296875 C91.06076241 275.77578073 69.80228093 276.96725503 51 279 C49.34460205 279.18006592 49.34460205 279.18006592 47.65576172 279.36376953 C16.29081598 282.58425593 -16.68293783 282.80098451 -48 279 C-48.9079834 278.89816406 -49.8159668 278.79632812 -50.75146484 278.69140625 C-69.55064732 276.53646724 -85.57315449 271.0708552 -98 256 C-108.33438346 240.82824556 -111.72871919 224.21802658 -113.0625 206.125 C-113.17948242 204.67480469 -113.17948242 204.67480469 -113.29882812 203.1953125 C-114.85483731 183.03149095 -115.20299096 162.90555565 -115.1875 142.6875 C-115.18738041 142.02184776 -115.18726082 141.35619553 -115.1871376 140.67037201 C-115.18186342 117.4016302 -114.72931437 94.21073329 -113 71 C-112.94672546 70.2746405 -112.89345093 69.54928101 -112.83856201 68.80194092 C-109.08644995 18.31324053 -109.08644995 18.31324053 -93.28125 1.9609375 C-68.82209707 -19.06388232 -25.65492148 -18.14435026 0 0 Z " fill="#67AD5E" transform="translate(472,348)"/>
<path d="M0 0 C13.69661972 11.49459082 18.89857558 26.56392587 20.51281929 43.97285843 C20.90139178 49.00227426 21.12838529 54.00800438 21.12060547 59.05371094 C21.11952223 59.84956982 21.11843899 60.6454287 21.11732292 61.46540451 C21.03402319 74.33208493 20.39934875 87.19115772 19.85428858 100.04491901 C19.72359699 103.13787032 19.59539308 106.23092293 19.46714294 109.32397628 C19.16381666 116.63817545 18.85644163 123.95219647 18.54638672 131.26611328 C18.22958989 138.74063021 17.91944889 146.21540196 17.6126529 153.69033551 C17.34636538 160.17271455 17.07595288 166.65491298 16.80237472 173.1369884 C16.6402151 176.97988102 16.47943843 180.82281645 16.32263565 184.6659317 C15.75818773 198.45998122 15.17996263 212.24756463 14.01513672 226.00683594 C13.94027102 226.90471958 13.86540531 227.80260323 13.78827095 228.72769547 C12.41998306 243.66180973 8.80695573 258.55157599 -2.53125 269.1484375 C-14.26953655 277.95215241 -26.28288419 280.37728867 -40.625 280.3125 C-42.49925659 280.30621582 -42.49925659 280.30621582 -44.41137695 280.29980469 C-60.17309811 280.10642196 -74.50134238 277.18321632 -87 267 C-103.06556944 250.42441248 -101.50306135 225.38941978 -101.375 204.0625 C-101.37167664 202.7463974 -101.36835327 201.4302948 -101.3649292 200.0743103 C-101.29822093 173.80849891 -100.50433107 147.56179277 -99.625 121.3125 C-99.59339531 120.36232624 -99.56179062 119.41215248 -99.52922821 118.43318558 C-98.88183119 99.04266429 -98.15658981 79.65580603 -97.12807846 60.2813015 C-97.04679983 58.74969082 -96.96708998 57.2179959 -96.88913345 55.68621254 C-95.97015032 37.84202745 -93.81246035 18.14359314 -80.76953125 4.515625 C-60.45052094 -12.88785403 -22.40291053 -15.37760758 0 0 Z " fill="#0C412B" transform="translate(552,37)"/>
</svg>
